<?xml version="1.0" encoding="utf-8"?>
<!-- Generator: Adobe Illustrator 19.1.0, SVG Export Plug-In . SVG Version: 6.00 Build 0)  -->
<svg version="1.1" id="Layer_1" xmlns="http://www.w3.org/2000/svg" xmlns:xlink="http://www.w3.org/1999/xlink" x="0px" y="0px"
	 viewBox="0 0 1024 544" style="enable-background:new 0 0 1024 544;" xml:space="preserve">
<style type="text/css">
	.st0{fill:#454545;}
</style>
<path class="st0" d="M768,0c-46.6,0-90.3,14-128,38.5C602.3,14,558.6,0,512,0s-90.3,14-128,38.5C346.3,14,302.6,0,256,0
	C114.6,0,0,128.9,0,288c0,111.2,56,207.6,138,256l0.2-38c-61-43.5-101-118-105.7-201.5h224c5,99.5,54.9,185.5,127.3,233.1l0-0.1
	l0.2,0.3C460.7,487.4,512,394.4,512,288c0-93.2-39.4-176.1-100.5-228.8C441.8,41.8,476,32,512,32s70.2,9.8,100.5,27.2
	C551.4,111.9,512,194.8,512,288c0,106.4,51.2,199.2,127.5,249.5l0.3,0.4c0.1,0,0.1-0.1,0.2-0.1c0.1,0,0.1,0.1,0.2,0.1l0.3-0.5
	C717,486.9,768,394.1,768,288c0-93.2-39.4-176.1-100.5-228.8C697.8,41.8,732,32,768,32c122.8,0,224,113.8,224,256
	c0,89.9-40.9,171.1-105.9,217.7c-0.1,0-0.1,38.3-0.1,38.3c82.2-48.8,138-145.1,138-256C1024,128.9,909.4,0,768,0z M256,32
	c36,0,70.2,9.8,100.5,27.2c-57.7,49.7-96,126.4-100.1,213.3h-224C39.5,137.6,137.7,32,256,32z M384,498.2
	c-55.4-44.4-91.1-115.1-95.5-193.7h191.1C475.1,383.1,439.5,453.7,384,498.2z M479.6,272.5H288.4c4.2-80.8,41.2-151.1,95.6-194.5
	C438.4,121.4,475.4,191.7,479.6,272.5z M736,288c0,85.1-36.7,162.6-96,210.2c-59.2-47.5-96-125.1-96-210.2c0-87.3,38.1-163.9,96-210
	C697.9,124.1,736,200.7,736,288z"/>
</svg>
