<?xml version="1.0" encoding="UTF-8" standalone="no"?>
<svg width="80px" height="43px" viewBox="0 0 80 43" version="1.1" xmlns="http://www.w3.org/2000/svg" xmlns:xlink="http://www.w3.org/1999/xlink" xmlns:sketch="http://www.bohemiancoding.com/sketch/ns">
    <!-- Generator: Sketch 3.5.2 (25235) - http://www.bohemiancoding.com/sketch -->
    <title>Shape Copy</title>
    <desc>Created with Sketch.</desc>
    <defs></defs>
    <g id="Logo" stroke="none" stroke-width="1" fill="none" fill-rule="evenodd" sketch:type="MSPage">
        <g id="1024-copy-3" sketch:type="MSArtboardGroup" transform="translate(-472.000000, -475.000000)" fill="#44403E">
            <path d="M512,497.764706 C512,485.192106 503.045695,475 492,475 C480.954305,475 472,485.192106 472,497.764706 C472,506.550717 476.372857,514.174209 482.78125,518 C482.78125,518 482.794791,514.994886 482.794791,514.994885 C477.715051,511.330639 474.5,504.891292 474.5,497.764706 C474.5,486.527043 482.404896,477.529412 492,477.529412 C501.595104,477.529412 509.5,486.527043 509.5,497.764706 C509.5,505.135292 506.0639,511.777574 500.620499,515.396505 L501.993379,517.510392 C507.991856,513.52243 512,506.176349 512,497.764706 L512,497.764706 L512,497.764706 L512,497.764706 L512,497.764706 Z M512,477.529412 C514.814255,477.529412 517.483109,478.303438 519.849757,479.680987 C515.077522,483.841428 512,490.393989 512,497.764706 C512,506.171692 516.003708,513.514296 521.963435,517.483879 C528.011839,513.485753 532,506.155354 532,497.764706 C532,490.393989 528.922478,483.841428 524.150243,479.680987 C526.516891,478.303438 529.185745,477.529412 532,477.529412 C541.595104,477.529412 549.5,486.527043 549.5,497.764706 C549.5,504.871908 546.303775,511.289165 541.226558,514.975644 C541.21875,514.975643 541.21875,518 541.21875,518 C547.644288,514.144285 552,506.533477 552,497.764706 C552,485.192106 543.045695,475 532,475 C528.357129,475 524.941734,476.108576 522,478.045512 C519.058266,476.108576 515.642871,475 512,475 C501.315417,475 492.587713,484.536588 492.028471,496.539522 L473.483401,496.539522 L472.233401,496.539522 L472.233401,499.068934 L473.483401,499.068934 L492.032274,499.068934 C492.422494,506.932391 496.319183,513.729995 501.974675,517.49136 L503.34792,515.377716 C498.254255,511.990012 494.914728,505.908878 494.53602,499.068934 L509.501717,499.068934 L510.751717,499.068934 L510.751717,496.539522 L509.501717,496.539522 L494.531495,496.539522 C495.081201,485.880144 502.756256,477.529412 512,477.529412 Z M522,481.164046 C526.520674,484.810941 529.5,490.865693 529.5,497.764706 C529.5,504.493255 526.636436,510.614727 521.996653,514.383252 C517.368646,510.629164 514.5,504.497898 514.5,497.764706 C514.5,490.865693 517.479326,484.810941 522,481.164046 L522,481.164046 L522,481.164046 L522,481.164046 Z" id="Shape-Copy" sketch:type="MSShapeGroup"></path>
        </g>
    </g>
</svg>