<?xml version="1.0" encoding="UTF-8" standalone="no"?>
<svg width="81px" height="57px" viewBox="0 0 81 57" version="1.1" xmlns="http://www.w3.org/2000/svg" xmlns:xlink="http://www.w3.org/1999/xlink">
    <!-- Generator: Sketch 3.6 (26304) - http://www.bohemiancoding.com/sketch -->
    <title>Group 6</title>
    <desc>Created with Sketch.</desc>
    <defs></defs>
    <g id="Page-1" stroke="none" stroke-width="1" fill="none" fill-rule="evenodd">
        <g id="Desktop-HD" transform="translate(-522.000000, -530.000000)">
            <g id="Group-6" transform="translate(523.000000, 531.000000)">
                <rect id="Rectangle-path" stroke="#8793E0" stroke-linecap="round" stroke-linejoin="round" x="8" y="8" width="24" height="22"></rect>
                <path d="M36,5 L36,33" id="Shape" stroke="#8793E0" stroke-linecap="round" stroke-linejoin="round"></path>
                <path d="M4,4 L4,34" id="Shape" stroke="#8793E0" stroke-linecap="round" stroke-linejoin="round"></path>
                <path d="M0,0 L0,39" id="Shape" stroke="#8793E0" stroke-linecap="round" stroke-linejoin="round"></path>
                <path d="M40,0 L40,39" id="Shape" stroke="#8793E0" stroke-linecap="round" stroke-linejoin="round"></path>
                <path d="M48.9540146,25.13792 C48.0699909,24.1386677 47.54259,22.8354593 47.54259,21.3478418 C47.54259,18.0286985 50.2332867,15.3380018 53.55243,15.3380018 C56.8715733,15.3380018 59.56227,18.0286985 59.56227,21.3478418 C59.56227,22.870214 59.0038956,24.2262674 58.0772026,25.2567068" id="Shape" stroke="#00D8A2" transform="translate(53.552430, 20.297354) rotate(-20.000000) translate(-53.552430, -20.297354) "></path>
                <path d="M46.3343794,28.1853474 C44.6423409,26.4238709 43.6022884,24.031412 43.6022884,21.396036 C43.6022884,15.9826511 47.9907038,11.5942353 53.4040892,11.5942353 C58.8174746,11.5942353 63.205889,15.9826511 63.205889,21.396036 C63.205889,24.0299719 62.1669734,26.4212559 60.4765723,28.1824597" id="Shape" stroke="#00D8A2" transform="translate(53.404089, 19.889791) rotate(-20.000000) translate(-53.404089, -19.889791) "></path>
                <path d="M60.6791254,32.4884431 L60.6791254,31.7344567 C60.6791254,30.4852158 61.691836,29.4725053 62.9410788,29.4725053 L62.9410826,29.4725053 C64.1903235,29.4725053 65.203034,30.4852159 65.203034,31.7344567 L65.203034,36.2583672" id="Shape" stroke="#8793E0" transform="translate(62.941080, 32.865436) rotate(-20.000000) translate(-62.941080, -32.865436) "></path>
                <path d="M65.1880872,34.6656289 L65.1880872,30.8957047 C65.1880872,29.6464638 66.2007978,28.6337533 67.4500386,28.6337533 L67.4500443,28.6337533 C68.6992833,28.6337533 69.7119938,29.6464639 69.7119938,30.8957047 L69.7119938,35.4196133" id="Shape" stroke="#8793E0" transform="translate(67.450040, 32.026683) rotate(-20.000000) translate(-67.450040, -32.026683) "></path>
                <path d="M55.267593,43.2881466 L55.267593,21.422589 C55.267593,20.1733472 56.2803036,19.1606366 57.5295444,19.1606366 L57.5295482,19.1606366 C58.778791,19.1606366 59.7914996,20.1733472 59.7914996,21.422589 L59.7914996,38.0102546" id="Shape" stroke="#8793E0" transform="translate(57.529546, 31.224392) rotate(-20.000000) translate(-57.529546, -31.224392) "></path>
                <path d="M60.4842399,56.2227258 C60.4842399,53.8665208 55.3948425,50.379342 54.8293546,44.7872896 C54.7241414,43.7468538 54.7158035,42.2095384 54.7358001,40.8873663 C54.759312,39.332757 55.8076862,37.9833212 57.308348,37.5766516 L60.6099036,36.6819563" id="Shape" stroke="#8793E0" transform="translate(57.668525, 46.452341) rotate(-20.000000) translate(-57.668525, -46.452341) "></path>
                <path d="M72.654478,29.4961174 C72.654478,29.4961174 73.6119937,28.6404922 74.9164371,28.7421349 C76.1259517,28.8363808 76.622343,29.803624 76.8720798,31.0276478 C78.7806034,40.3817719 74.9164333,48.0629891 74.9164333,49.8537033" id="Shape" stroke="#8793E0" transform="translate(75.028044, 39.293725) rotate(-20.000000) translate(-75.028044, -39.293725) "></path>
            </g>
        </g>
    </g>
</svg>